HIERARCHY
ROOT SimulationBone
{
	OFFSET 0.000000 0.000000 0.000000
	CHANNELS 6 Xposition Yposition Zposition Zrotation Yrotation Xrotation 
	JOINT Hips
	{
		OFFSET 0.000000 0.000000 0.000000
		CHANNELS 6 Xposition Yposition Zposition Zrotation Yrotation Xrotation 
		JOINT RightUpLeg
		{
			OFFSET 0.103462 1.857831 10.548502
			CHANNELS 3 Zrotation Yrotation Xrotation
			JOINT RightLeg
			{
				OFFSET 43.500008 -0.000027 -0.000004
				CHANNELS 3 Zrotation Yrotation Xrotation
				JOINT RightFoot
				{
					OFFSET 42.372200 0.000011 -0.000002
					CHANNELS 3 Zrotation Yrotation Xrotation
					JOINT RightToe
					{
						OFFSET 17.299999 -0.000001 -0.000002
						CHANNELS 3 Zrotation Yrotation Xrotation
						End Site
						{
							OFFSET 0.000000 0.000000 0.000000
						}
					}
				}
			}
		}
		JOINT LeftUpLeg
		{
			OFFSET 0.103458 1.857828 -10.548501
			CHANNELS 3 Zrotation Yrotation Xrotation
			JOINT LeftLeg
			{
				OFFSET 43.500038 -0.000031 0.000011
				CHANNELS 3 Zrotation Yrotation Xrotation
				JOINT LeftFoot
				{
					OFFSET 42.372257 -0.000004 0.000010
					CHANNELS 3 Zrotation Yrotation Xrotation
					JOINT LeftToe
					{
						OFFSET 17.299994 -0.000005 0.000004
						CHANNELS 3 Zrotation Yrotation Xrotation
						End Site
						{
							OFFSET 0.000000 0.000000 0.000000
						}
					}
				}
			}
		}
		JOINT Spine
		{
			OFFSET 6.901966 -2.603733 0.000000
			CHANNELS 3 Zrotation Yrotation Xrotation
			JOINT Spine1
			{
				OFFSET 12.588101 0.000002 0.000000
				CHANNELS 3 Zrotation Yrotation Xrotation
				JOINT Spine2
				{
					OFFSET 12.343201 0.000004 -0.000002
					CHANNELS 3 Zrotation Yrotation Xrotation
					JOINT Neck
					{
						OFFSET 25.832895 -0.000004 0.000002
						CHANNELS 3 Zrotation Yrotation Xrotation
						JOINT Head
						{
							OFFSET 11.766604 0.000011 0.000001
							CHANNELS 3 Zrotation Yrotation Xrotation
							End Site
							{
								OFFSET 0.000000 0.000000 0.000000
							}
						}
					}
					JOINT RightShoulder
					{
						OFFSET 19.745903 -1.480368 6.000108
						CHANNELS 3 Zrotation Yrotation Xrotation
						JOINT RightArm
						{
							OFFSET 11.284126 -0.000007 -0.000022
							CHANNELS 3 Zrotation Yrotation Xrotation
							JOINT RightForeArm
							{
								OFFSET 33.000053 0.000001 0.000028
								CHANNELS 3 Zrotation Yrotation Xrotation
								JOINT RightHand
								{
									OFFSET 25.200005 0.000019 0.000013
									CHANNELS 3 Zrotation Yrotation Xrotation
									End Site
									{
										OFFSET 0.000000 0.000000 0.000000
									}
								}
							}
						}
					}
					JOINT LeftShoulder
					{
						OFFSET 19.746094 -1.480373 -6.000072
						CHANNELS 3 Zrotation Yrotation Xrotation
						JOINT LeftArm
						{
							OFFSET 11.284138 -0.000017 -0.000010
							CHANNELS 3 Zrotation Yrotation Xrotation
							JOINT LeftForeArm
							{
								OFFSET 33.000092 0.000013 0.000009
								CHANNELS 3 Zrotation Yrotation Xrotation
								JOINT LeftHand
								{
									OFFSET 25.199776 0.000139 0.000415
									CHANNELS 3 Zrotation Yrotation Xrotation
									End Site
									{
										OFFSET 0.000000 0.000000 0.000000
									}
								}
							}
						}
					}
				}
			}
		}
	}
}
MOTION
Frames: 9
Frame Time: 0.033333
-25.219655 0.000000 257.853272 0.000000 -11.668809 0.000000 -0.269157 87.183792 1.198344 93.521146 3.084956 179.012475 156.573016 1.699204 168.032093 -10.634149 -3.390212 -11.819510 66.121005 8.683097 -0.140898 21.454558 0.003108 0.000019 -164.424496 -1.013793 -175.181621 -16.942002 2.629104 7.820334 85.560632 -4.092014 7.272744 21.454545 -0.003091 -0.000001 8.216528 0.352758 2.247294 6.431795 0.580569 4.510677 6.114742 0.607634 4.507093 4.407673 13.349889 22.103081 -18.319906 -22.533626 33.033937 -155.171680 -69.389791 -26.971377 -1.818502 57.777465 36.828653 -31.015063 -14.179221 1.223283 8.055730 10.410371 21.607083 144.305423 83.425139 -34.389798 -61.844166 -37.388438 -6.296719 -69.168807 12.619283 -2.292683 -1.913528 -1.328080 -47.102228 
-22.184907 0.000000 258.800553 0.000000 -10.282491 0.000000 0.187907 86.402313 1.235740 94.305943 2.499489 178.632210 155.607077 2.100996 164.132506 -17.866897 -2.418639 -10.136772 66.480362 9.609800 6.002515 21.454560 0.003106 0.000017 -162.477469 -0.326004 -172.969978 -19.748411 2.573954 6.821038 85.320251 -3.199476 8.248665 21.454553 -0.003092 0.000000 8.305995 0.023520 2.162920 6.597736 -0.075846 4.323622 6.280613 -0.049895 4.323996 5.312365 13.567612 22.906561 -19.052550 -22.045342 33.799686 -155.280854 -69.264313 -26.861800 -3.357894 56.887351 37.006819 -30.145136 -13.915450 1.189089 9.018220 10.431132 24.601983 147.446121 83.234529 -31.238256 -62.256430 -38.664471 -4.699254 -67.773563 13.186657 -2.275508 -1.384606 -1.130265 -47.513709 
-19.114036 0.000000 259.687737 0.000000 -8.822208 0.000000 0.833885 85.944206 1.084593 95.329901 1.449196 177.327987 155.810398 3.108310 163.243871 -23.449224 -1.928017 -10.539939 68.941751 11.520437 11.543171 21.454558 0.003106 0.000017 -161.101049 1.187198 -170.429366 -23.686258 1.774493 5.495987 82.660227 -1.986260 8.712608 21.454557 -0.003090 -0.000001 8.394211 -0.450466 2.167145 6.756586 -1.026239 4.304497 6.439408 -1.000386 4.310593 5.698692 13.751150 24.077942 -19.628239 -21.844603 35.040807 -153.460567 -68.836900 -28.750800 -5.379043 56.300283 35.953754 -28.832998 -13.473470 1.135764 9.375913 9.221528 25.669171 149.816689 82.707464 -28.880232 -61.856857 -41.089359 -3.462391 -65.066363 13.959128 -2.221177 -1.295842 -0.490232 -47.838061 
-16.016797 0.000000 260.519955 0.000000 -7.272906 0.000000 1.369362 85.470734 0.842276 96.307447 0.363527 175.803527 155.483437 4.156296 165.681155 -30.474108 -2.204496 -12.464659 73.912865 11.667770 9.619276 21.454555 0.003108 0.000018 -161.968169 3.169602 -167.685393 -31.245015 0.037542 3.957018 78.141913 -0.335743 9.418243 21.454551 -0.003093 0.000001 8.406229 -0.918028 2.195098 6.763506 -1.962312 4.333527 6.446174 -1.936265 4.345266 7.013195 12.961933 25.412981 -21.315909 -21.448392 36.472920 -153.254514 -67.742902 -28.992002 -7.283521 54.986458 34.616898 -27.004311 -12.790130 1.059312 8.971413 6.503702 24.137025 151.781201 81.994474 -26.939091 -60.961945 -44.356973 -2.946525 -60.504227 15.270414 -2.135712 -1.203348 0.966927 -47.092689 
-12.914042 0.000000 261.281626 0.000000 -5.634946 0.000000 1.771757 85.335121 0.479922 97.171834 -0.972945 174.162279 156.971367 5.351900 165.170667 -33.824268 -2.578390 -12.443280 77.404840 11.052625 8.765844 21.454562 0.003103 0.000016 -164.923073 6.166900 -167.784621 -41.551084 0.061625 3.986501 71.597813 -0.326502 7.781823 21.454550 -0.003096 0.000003 8.354040 -1.424784 2.223822 6.640788 -2.974321 4.363865 6.323217 -2.948076 4.381707 7.975057 12.389260 26.585519 -22.106805 -21.526200 37.767920 -153.288815 -66.873289 -28.979181 -9.610619 54.025755 32.808144 -24.972860 -12.285788 0.993744 9.133671 3.515158 22.276667 155.411392 81.333469 -23.307517 -60.297470 -48.139228 -2.258132 -53.446872 16.581063 -1.970682 -1.436279 3.101627 -44.405795 
-9.810555 0.000000 261.971553 0.000000 -3.920645 0.000000 2.071117 85.596069 0.153582 97.740058 -2.010898 172.740969 159.309368 6.860002 164.408227 -34.635049 -2.261907 -12.042010 79.717781 10.368762 8.090990 21.454558 0.003107 0.000017 -169.479465 9.015899 -168.294850 -53.179723 -0.317195 4.139624 66.215686 0.670126 9.640298 21.454541 -0.003097 -0.000001 8.206506 -1.796220 2.217135 6.333248 -3.710514 4.335178 6.015415 -3.684427 4.357469 8.564121 11.602746 27.660210 -22.360233 -21.514201 38.804152 -153.717724 -66.524601 -28.544095 -11.667415 53.803842 30.634153 -23.817404 -12.042642 0.960660 9.110507 1.724130 20.575214 158.232684 81.037087 -20.469191 -59.837464 -52.073116 -0.372462 -44.899731 16.611995 -1.699781 0.193635 5.668273 -39.521752 
-6.701932 0.000000 262.598425 0.000000 -2.139819 0.000000 2.261079 86.206711 -0.072794 98.241826 -2.567706 172.167845 162.573884 8.242400 166.119367 -33.453211 -2.991776 -12.135279 81.021978 10.247183 7.790648 21.454560 0.003110 0.000017 -174.438496 10.906207 -168.381443 -62.945794 -1.423233 3.910653 60.291897 1.488683 9.777911 21.454553 -0.003095 0.000001 8.107314 -1.985580 2.012937 6.135858 -4.074528 3.920570 5.817700 -4.050932 3.945084 8.759505 10.901359 28.605230 -22.396679 -21.406771 39.650754 -153.895077 -66.489098 -28.361128 -13.853952 53.914289 28.103100 -24.349710 -12.105981 0.972646 8.729069 0.712853 21.372866 160.459804 80.743409 -18.228877 -59.126748 -55.474533 2.539045 -35.985832 15.581649 -1.395698 3.118800 7.217822 -33.366372 
-3.591670 0.000000 263.167542 0.000000 -0.315250 0.000000 2.401424 86.939934 -0.144350 98.536096 -2.456390 172.878634 166.077156 9.067000 168.377332 -31.749728 -3.392066 -11.634282 81.874318 9.822832 7.780463 21.454560 0.003106 0.000017 -179.138759 11.767592 -169.195561 -70.255947 -1.349308 3.003675 62.371396 1.828534 9.408560 21.454551 -0.003092 0.000002 8.032839 -1.929832 1.644082 6.001476 -3.941839 3.188114 5.683100 -3.922660 3.211858 8.626937 10.440228 29.133888 -22.257438 -21.435611 40.124711 -155.012345 -66.715102 -27.198107 -16.515520 53.696499 27.277528 -25.531754 -12.225821 0.998693 7.229588 -0.144237 21.347889 165.692439 80.518751 -12.938094 -57.130178 -58.317453 4.773098 -28.737454 14.432115 -1.169463 8.125122 8.058786 -28.678366 
-0.491724 0.000000 263.681596 0.000000 1.526678 0.000000 2.612387 87.705513 -0.032020 98.791983 -1.854107 174.570067 169.828610 9.162505 171.090406 -29.910884 -3.636549 -10.712823 82.553935 9.142824 7.849377 21.454563 0.003101 0.000016 176.611384 11.971495 -168.937708 -75.109562 -1.515501 2.149545 65.910390 1.309862 7.227133 21.454538 -0.003100 0.000001 7.980052 -1.718651 1.232419 5.913676 -3.497645 2.376863 5.595230 -3.483370 2.397946 8.880846 10.140019 29.302109 -22.225599 -21.611282 40.319525 -156.619981 -67.028512 -25.525891 -19.413675 53.081481 27.815182 -27.976457 -12.775937 1.075360 5.939893 -0.086088 20.535778 172.778282 79.965437 -5.770216 -50.815453 -60.430276 3.211427 -24.849673 13.268764 -1.029235 12.476499 7.121487 -27.848604 
